Coordinates
version=1
nRows=17
nColumns=23
inDegrees=yes

Units are S.I. units (second, meters, Newtons, ...)
Angles are in degrees.

endheader
time	pelvis_tilt	pelvis_list	pelvis_rotation	pelvis_tx	pelvis_ty	pelvis_tz	hip_flexion_r	hip_adduction_r	hip_rotation_r	knee_angle_r	knee_angle_r_beta	ankle_angle_r	subtalar_angle_r	mtp_angle_r	hip_flexion_l	hip_adduction_l	hip_rotation_l	knee_angle_l	knee_angle_l_beta	ankle_angle_l	subtalar_angle_l	mtp_angle_l
    120.00000000	     -2.70972600	    -10.37854043	     -6.43557274	     -0.02354103	      1.28638055	      0.21025961	     77.56675797	      3.66590164	     -2.31296270	    105.58550993	      1.84281479	      1.22632734	      0.00000000	      0.00000000	     32.73701184	    -17.38197911	      0.96719810	     52.27751428	      0.91241475	     -5.26845774	      0.00000000	      0.00000000
    120.00888900	     -2.52483048	     -9.78292226	     -6.53040152	     -0.02391496	      1.28674107	      0.21048937	     76.85860823	      3.85209826	     -1.65866528	    103.69275659	      1.80978001	      2.06116923	      0.00000000	      0.00000000	     33.14414871	    -16.75742159	      1.20659104	     54.89394625	      0.95808010	     -5.26663748	      0.00000000	      0.00000000
    120.01777800	     -2.34125194	     -9.91894290	     -6.08703160	     -0.02441505	      1.28688012	      0.20966077	     75.75762631	      3.71702851	     -1.87425097	    101.55602163	      1.77248695	      3.60825655	      0.00000000	      0.00000000	     33.99470505	    -16.42953583	      2.52583618	     57.98044024	      1.01194958	     -4.15940705	      0.00000000	      0.00000000
    120.02666700	     -2.10462638	     -9.49528256	     -5.88174464	     -0.02475186	      1.28703672	      0.20934625	     74.55354628	      3.63637001	     -1.46278531	     99.31161572	      1.73331468	      4.67822383	      0.00000000	      0.00000000	     34.67689491	    -15.71188072	      3.24761427	     60.98082358	      1.06431615	     -3.60660029	      0.00000000	      0.00000000
    120.03555600	     -1.83247563	     -9.06642007	     -5.62197266	     -0.02508025	      1.28714052	      0.20904860	     73.14889762	      3.49654794	     -1.06813815	     96.89949021	      1.69121515	      5.68975000	      0.00000000	      0.00000000	     35.41592286	    -14.97736982	      3.92514589	     64.05792119	      1.11802164	     -3.06028753	      0.00000000	      0.00000000
    120.04444400	     -1.52568932	     -8.61135054	     -5.34874753	     -0.02533418	      1.28724516	      0.20874528	     71.54379772	      3.30979821	     -0.67125937	     94.33658255	      1.64648397	      6.62510822	      0.00000000	      0.00000000	     36.18146453	    -14.20831407	      4.56220841	     67.18536049	      1.17260575	     -2.51412776	      0.00000000	      0.00000000
    120.05333300	     -1.18126999	     -8.16839127	     -5.07064911	     -0.02547763	      1.28737842	      0.20853564	     69.75113406	      3.11069177	     -0.31317213	     91.61504272	      1.59898414	      7.43175881	      0.00000000	      0.00000000	     36.95269351	    -13.46378763	      5.15007054	     70.34065210	      1.22767598	     -2.05907312	      0.00000000	      0.00000000
    120.06222200	     -0.98173314	     -7.17700123	     -5.02864361	     -0.02547566	      1.28707791	      0.20888014	     68.14129944	      2.83199614	      0.58673890	     88.91574093	      1.55187244	      7.96063742	      0.00000000	      0.00000000	     37.81955185	    -12.40293654	      5.15153491	     73.42574070	      1.28152093	     -1.97401359	      0.00000000	      0.00000000
    120.07111100	     -0.47032730	     -6.74947405	     -4.44774407	     -0.02557642	      1.28730954	      0.20820128	     65.88078856	      2.23425418	      0.71546132	     85.95502624	      1.50019822	      8.74394238	      0.00000000	      0.00000000	     38.56588272	    -11.45264380	      5.93022810	     76.61847616	      1.33724468	     -0.83335408	      0.00000000	      0.00000000
    120.08000000	     -0.05533539	     -6.08802804	     -4.09630839	     -0.02558310	      1.28733122	      0.20814624	     63.70104969	      1.72372803	      1.08727669	     82.94907822	      1.44773453	      9.18155783	      0.00000000	      0.00000000	     39.40826617	    -10.51486277	      6.26360923	     79.73971199	      1.39172052	     -0.32307596	      0.00000000	      0.00000000
    120.08888900	      0.39751181	     -5.43810614	     -3.78255707	     -0.02561875	      1.28742428	      0.20821374	     61.38098250	      1.21262972	      1.39672109	     79.81926308	      1.39310895	      9.53537289	      0.00000000	      0.00000000	     40.25431462	     -9.64518393	      6.52507091	     82.79123890	      1.44497971	      0.03366500	      0.00000000	      0.00000000
    120.09777800	      0.72433602	     -4.56005993	     -3.43908338	     -0.02557423	      1.28731515	      0.20830980	     59.16839950	      0.47194092	      1.80106676	     76.68660697	      1.33843378	      9.67674534	      0.00000000	      0.00000000	     41.27270550	     -8.55249771	      6.64281091	     85.79457503	      1.49739781	      0.48473856	      0.00000000	      0.00000000
    120.10666700	      1.06234292	     -3.75300910	     -3.08734552	     -0.02555306	      1.28728672	      0.20850921	     56.85042783	     -0.26785369	      2.06646379	     73.46340183	      1.28217824	      9.69763234	      0.00000000	      0.00000000	     42.35731012	     -7.57117571	      6.74557697	     88.72349795	      1.54851716	      0.78984142	      0.00000000	      0.00000000
    120.11555600	      1.27523909	     -2.80324152	     -2.73815461	     -0.02557704	      1.28709296	      0.20866900	     54.66493858	     -1.17233759	      2.34910185	     70.24479355	      1.22600293	      9.46511948	      0.00000000	      0.00000000	     43.62937525	     -6.48018915	      6.71485692	     91.55344320	      1.59790903	      1.08226694	      0.00000000	      0.00000000
    120.12444400	      1.24059573	     -1.57592113	     -2.63598314	     -0.02541072	      1.28683181	      0.20943465	     52.75422109	     -2.06024182	      2.98043186	     67.04382552	      1.17013550	      9.43632250	      0.00000000	      0.00000000	     45.12938722	     -5.41507053	      6.24269448	     94.15677976	      1.64334582	      1.02935939	      0.00000000	      0.00000000
    120.13333300	      1.53214209	     -1.08748259	     -2.03479054	     -0.02570587	      1.28687704	      0.20920022	     50.31373239	     -2.94091423	      2.54066747	     63.68858043	      1.11157542	      8.52562815	      0.00000000	      0.00000000	     46.56633395	     -4.58865279	      6.60479298	     96.89386126	      1.69111690	      1.29107581	      0.00000000	      0.00000000
    120.14222200	      1.52927791	     -0.19015507	     -1.69694903	     -0.02586986	      1.28671398	      0.20957924	     48.28423242	     -3.87379081	      2.58016454	     60.46194136	      1.05525995	      7.75997619	      0.00000000	      0.00000000	     48.26660269	     -3.69086516	      6.43309413	     99.36227524	      1.73419886	      1.28221765	      0.00000000	      0.00000000
